<svg width="4302" height="2789" viewBox="0 0 4302 2789" fill="none" xmlns="http://www.w3.org/2000/svg">
<g clip-path="url(#clip0_1_2)">
<path d="M1397 1444C1397 1608.67 1365.33 1746.33 1302 1857C1239.33 1967 1148.33 2050 1029 2106C909.667 2161.33 766 2189 598 2189H184V727H643C796.333 727 929.333 754.333 1042 809C1154.67 863 1242 943.333 1304 1050C1366 1156 1397 1287.33 1397 1444ZM1075 1452C1075 1344 1059 1255.33 1027 1186C995.667 1116 949 1064.33 887 1031C825.667 997.667 749.667 981 659 981H494V1933H627C778.333 1933 890.667 1892.67 964 1812C1038 1731.33 1075 1611.33 1075 1452Z" fill="black"/>
<circle cx="2316" cy="1500" r="800" fill="#F01E2C"/>
<path d="M1825.6 1625.6C1808.8 1625.6 1792.72 1622.24 1777.36 1615.52C1762.24 1608.8 1748.8 1599.68 1737.04 1588.16C1725.52 1576.4 1716.4 1562.96 1709.68 1547.84C1702.96 1532.48 1699.6 1516.4 1699.6 1499.6C1699.6 1482.56 1702.96 1466.48 1709.68 1451.36C1716.4 1436.24 1725.52 1422.92 1737.04 1411.4C1748.8 1399.64 1762.24 1390.4 1777.36 1383.68C1792.72 1376.96 1808.8 1373.6 1825.6 1373.6C1842.64 1373.6 1858.72 1376.96 1873.84 1383.68C1888.96 1390.4 1902.28 1399.64 1913.8 1411.4C1925.56 1422.92 1934.8 1436.24 1941.52 1451.36C1948.24 1466.48 1951.6 1482.56 1951.6 1499.6C1951.6 1516.4 1948.24 1532.48 1941.52 1547.84C1934.8 1562.96 1925.56 1576.4 1913.8 1588.16C1902.28 1599.68 1888.96 1608.8 1873.84 1615.52C1858.72 1622.24 1842.64 1625.6 1825.6 1625.6ZM1825.6 1571.6C1834.96 1571.6 1843.96 1569.68 1852.6 1565.84C1861.24 1561.76 1868.92 1556.36 1875.64 1549.64C1882.36 1542.92 1887.64 1535.24 1891.48 1526.6C1895.56 1517.72 1897.6 1508.6 1897.6 1499.24C1897.6 1489.88 1895.56 1480.88 1891.48 1472.24C1887.64 1463.6 1882.36 1455.92 1875.64 1449.2C1868.92 1442.48 1861.24 1437.2 1852.6 1433.36C1843.96 1429.28 1834.96 1427.24 1825.6 1427.24C1816.24 1427.24 1807.24 1429.28 1798.6 1433.36C1789.96 1437.2 1782.28 1442.48 1775.56 1449.2C1768.84 1455.92 1763.44 1463.6 1759.36 1472.24C1755.52 1480.88 1753.6 1489.88 1753.6 1499.24C1753.6 1508.6 1755.52 1517.72 1759.36 1526.6C1763.44 1535.24 1768.84 1542.92 1775.56 1549.64C1782.28 1556.36 1789.96 1561.76 1798.6 1565.84C1807.24 1569.68 1816.24 1571.6 1825.6 1571.6ZM1985.63 1622V1377.2H2039.63L2123.87 1529.84V1377.2H2177.87V1622H2123.87L2039.63 1469.36V1622H1985.63ZM2377.25 1622V1426.16H2303.81V1377.2H2504.69V1426.16H2431.25V1622H2377.25ZM2533.37 1622V1377.2H2587.37V1474.76H2675.21V1377.2H2729.21V1622H2675.21V1523.72H2587.37V1622H2533.37ZM2772.43 1622V1377.2H2925.07V1426.16H2826.43V1474.76H2921.47V1523.72H2826.43V1573.04H2925.07V1622H2772.43Z" fill="black"/>
<path d="M3864 2189H3554V985H3157V727H4261V985H3864V2189Z" fill="black"/>
</g>
<defs>
<clipPath id="clip0_1_2">
<rect width="4302" height="2789" fill="white"/>
</clipPath>
</defs>
</svg>