<svg width="3969" height="1462" viewBox="0 0 3969 1462" fill="none" xmlns="http://www.w3.org/2000/svg">
<g clip-path="url(#clip0_1_2)">
<path d="M1213 717C1213 881.667 1181.33 1019.33 1118 1130C1055.33 1240 964.333 1323 845 1379C725.667 1434.33 582 1462 414 1462H0V0H459C612.333 0 745.333 27.3333 858 82C970.667 136 1058 216.333 1120 323C1182 429 1213 560.333 1213 717ZM891 725C891 617 875 528.333 843 459C811.667 389 765 337.333 703 304C641.667 270.667 565.667 254 475 254H310V1206H443C594.333 1206 706.667 1165.67 780 1085C854 1004.33 891 884.333 891 725Z" fill="black"/>
<circle cx="2039" cy="731" r="731" fill="#F01E2C"/>
<path d="M1548.6 883.6C1531.8 883.6 1515.72 880.24 1500.36 873.52C1485.24 866.8 1471.8 857.68 1460.04 846.16C1448.52 834.4 1439.4 820.96 1432.68 805.84C1425.96 790.48 1422.6 774.4 1422.6 757.6C1422.6 740.56 1425.96 724.48 1432.68 709.36C1439.4 694.24 1448.52 680.92 1460.04 669.4C1471.8 657.64 1485.24 648.4 1500.36 641.68C1515.72 634.96 1531.8 631.6 1548.6 631.6C1565.64 631.6 1581.72 634.96 1596.84 641.68C1611.96 648.4 1625.28 657.64 1636.8 669.4C1648.56 680.92 1657.8 694.24 1664.52 709.36C1671.24 724.48 1674.6 740.56 1674.6 757.6C1674.6 774.4 1671.24 790.48 1664.52 805.84C1657.8 820.96 1648.56 834.4 1636.8 846.16C1625.28 857.68 1611.96 866.8 1596.84 873.52C1581.72 880.24 1565.64 883.6 1548.6 883.6ZM1548.6 829.6C1557.96 829.6 1566.96 827.68 1575.6 823.84C1584.24 819.76 1591.92 814.36 1598.64 807.64C1605.36 800.92 1610.64 793.24 1614.48 784.6C1618.56 775.72 1620.6 766.6 1620.6 757.24C1620.6 747.88 1618.56 738.88 1614.48 730.24C1610.64 721.6 1605.36 713.92 1598.64 707.2C1591.92 700.48 1584.24 695.2 1575.6 691.36C1566.96 687.28 1557.96 685.24 1548.6 685.24C1539.24 685.24 1530.24 687.28 1521.6 691.36C1512.96 695.2 1505.28 700.48 1498.56 707.2C1491.84 713.92 1486.44 721.6 1482.36 730.24C1478.52 738.88 1476.6 747.88 1476.6 757.24C1476.6 766.6 1478.52 775.72 1482.36 784.6C1486.44 793.24 1491.84 800.92 1498.56 807.64C1505.28 814.36 1512.96 819.76 1521.6 823.84C1530.24 827.68 1539.24 829.6 1548.6 829.6ZM1708.63 880V635.2H1762.63L1846.87 787.84V635.2H1900.87V880H1846.87L1762.63 727.36V880H1708.63ZM2100.25 880V684.16H2026.81V635.2H2227.69V684.16H2154.25V880H2100.25ZM2256.37 880V635.2H2310.37V732.76H2398.21V635.2H2452.21V880H2398.21V781.72H2310.37V880H2256.37ZM2495.43 880V635.2H2648.07V684.16H2549.43V732.76H2644.47V781.72H2549.43V831.04H2648.07V880H2495.43Z" fill="black"/>
<path d="M3572 1462H3262V258H2865V0H3969V258H3572V1462Z" fill="black"/>
</g>
<defs>
<clipPath id="clip0_1_2">
<rect width="3969" height="1462" fill="white"/>
</clipPath>
</defs>
</svg>